<svg width="1108" height="763" viewBox="0 0 1108 763" fill="none" xmlns="http://www.w3.org/2000/svg">
<path d="M217.734 745.939C202.279 731.955 192.362 712.757 189.882 692.07C189.139 692.401 188.477 692.649 187.734 692.98C190.048 694.801 192.362 696.621 194.593 698.524C195.668 699.352 197.238 698.359 196.577 697.035C191.701 687.85 188.643 677.92 187.568 667.576C186.907 667.907 186.329 668.321 185.667 668.652C187.651 669.562 188.891 670.638 189.717 672.79C190.461 672.459 191.205 672.128 191.948 671.797C185.75 657.398 180.626 642.504 176.824 627.278C174.924 619.831 173.353 612.383 172.114 604.853C171.452 600.964 170.874 596.992 170.378 593.103C169.965 589.793 169.138 586.152 169.386 582.842C169.965 575.891 174.758 582.842 176.163 585.49C177.734 588.635 178.973 591.862 180.378 595.089C183.601 602.536 186.907 609.984 190.13 617.514C196.659 632.408 203.106 647.386 209.635 662.281C210.378 661.867 211.04 661.453 211.783 661.039C206.329 648.71 203.849 635.47 204.263 621.982C203.519 622.313 202.858 622.561 202.114 622.892C204.345 625.375 206.659 627.857 208.891 630.34C209.8 631.333 211.205 630.257 210.957 629.098C208.891 620.575 209.552 612.052 212.858 603.943C212.114 604.026 211.37 604.108 210.626 604.274C221.37 619.831 226.412 639.111 231.701 656.985C237.321 676.265 242.114 695.711 245.998 715.405C246.246 716.729 248.56 716.481 248.395 715.074C248.147 712.178 248.065 709.199 248.313 706.303C248.478 704.482 249.056 695.049 253.354 699.683C255.172 701.586 255.999 705.723 256.742 708.206C257.651 711.102 258.23 713.998 258.726 716.894C258.974 718.467 261.37 717.805 261.123 716.233C260.296 711.185 258.891 706.303 256.99 701.586C255.916 699.104 254.346 694.883 250.957 694.801C247.982 694.718 247.238 697.862 246.66 700.097C245.585 704.979 245.42 710.026 245.833 714.991C246.66 714.909 247.486 714.743 248.23 714.66C244.263 694.47 239.387 674.445 233.519 654.668C228.312 637.042 223.271 618.176 212.692 602.867C212.031 601.957 210.792 602.122 210.461 603.198C207.073 611.721 206.411 620.741 208.56 629.678C209.221 629.264 209.965 628.85 210.626 628.436C208.395 625.954 206.081 623.472 203.849 620.989C203.106 620.162 201.783 620.824 201.701 621.899C201.287 635.801 203.932 649.455 209.552 662.198C210.213 663.687 212.362 662.363 211.701 660.957C205.75 647.303 199.8 633.567 193.849 619.913C190.957 613.211 187.982 606.508 185.089 599.723C182.527 593.765 180.378 587.062 176.824 581.601C175.502 579.615 172.114 575.477 169.386 576.967C165.337 579.118 167.155 586.649 167.486 589.958C169.056 603.198 171.452 616.355 174.841 629.347C178.725 644.241 183.767 658.805 189.882 672.955C190.461 674.196 192.61 673.286 192.114 671.962C191.122 669.314 189.552 667.494 186.907 666.335C186.163 666.004 184.924 666.335 185.006 667.411C186.163 678.251 189.304 688.512 194.428 698.111C195.089 697.614 195.75 697.118 196.411 696.621C194.097 694.801 191.783 692.98 189.552 691.077C188.808 690.498 187.32 690.746 187.403 691.987C189.882 713.336 200.048 733.113 215.916 747.594C217.155 748.753 218.973 747.015 217.734 745.939Z" fill="black"/>
<path d="M585.174 740.147C572.282 722.77 568.645 699.848 575.505 679.327C574.926 679.575 574.265 679.823 573.687 680.071C577.158 682.554 579.306 685.947 580.216 690.084C580.546 691.656 582.943 690.994 582.612 689.422C579.059 671.3 579.968 652.764 585.174 635.056C584.678 635.305 584.183 635.636 583.687 635.884C584.513 636.711 585.422 637.539 586.249 638.366C586.662 639.607 588.811 639.525 588.645 638.035C587.406 618.755 591.869 599.64 601.455 582.842C600.712 582.759 599.968 582.677 599.224 582.511C603.274 592.937 603.356 604.439 604.265 615.445C605.174 626.616 606.001 637.87 606.91 649.041C608.728 671.714 610.464 694.387 612.282 717.06C612.447 718.632 614.927 718.632 614.761 717.06C612.943 693.808 611.125 670.638 609.307 647.386C608.398 635.884 607.488 624.465 606.579 612.962C605.753 602.536 605.505 591.696 601.621 581.849C601.29 580.939 599.885 580.525 599.389 581.518C589.554 598.647 584.926 618.258 586.166 637.953C586.992 637.87 587.819 637.704 588.563 637.622C587.819 635.387 586.497 634.063 584.265 633.401C583.604 633.153 582.943 633.65 582.778 634.229C577.406 652.351 576.579 671.383 580.216 689.919C581.042 689.67 581.786 689.505 582.612 689.257C581.538 684.457 578.976 680.651 574.926 677.755C574.265 677.258 573.356 677.837 573.108 678.499C566.001 699.6 569.72 723.349 583.026 741.223C584.017 742.712 586.166 741.471 585.174 740.147Z" fill="black"/>
<path d="M612.861 690.167C612.365 676.844 615.423 663.853 621.786 652.185C621.042 652.185 620.381 652.185 619.638 652.185C623.357 658.971 624.927 666.335 624.431 674.114C624.348 675.52 626.662 675.851 626.828 674.445C628.563 664.101 631.621 654.006 636.249 644.572C637.158 642.752 638.481 639.111 640.134 637.952C644.101 635.222 642.778 640.849 642.613 643.083C642.365 648.71 642.117 654.419 641.786 660.046C640.547 682.14 638.729 704.234 636.415 726.245C636.249 727.817 638.729 727.817 638.894 726.245C642.034 696.207 644.266 666.004 645.423 635.801C645.423 635.387 645.175 634.891 644.844 634.725C638.398 631.333 634.431 642.504 632.53 646.641C628.646 655.33 626.001 664.432 624.431 673.782C625.257 673.865 626.084 674.031 626.828 674.114C627.324 665.921 625.588 658.143 621.704 650.944C621.29 650.116 619.968 650.116 619.555 650.944C613.026 663.025 609.885 676.43 610.299 690.167C610.464 691.739 612.943 691.739 612.861 690.167Z" fill="black"/>
<path d="M643.026 730.217C643.274 717.308 647.489 704.979 655.092 694.552C654.348 694.304 653.522 694.139 652.778 693.89C652.282 709.861 651.786 725.831 651.291 741.802C651.208 743.374 653.687 743.374 653.77 741.802C654.266 725.831 654.762 709.861 655.257 693.89C655.34 692.566 653.605 692.318 652.943 693.228C645.009 703.986 640.795 716.729 640.547 730.134C640.547 731.872 643.026 731.872 643.026 730.217Z" fill="black"/>
<path d="M919.722 721.197C919.474 712.591 920.383 704.068 922.697 695.711C923.193 693.807 923.772 691.904 924.433 690.001C924.764 689.091 925.094 688.098 925.425 687.188C926.251 685.119 926.003 684.291 928.483 684.374C930.797 684.457 930.383 684.705 930.797 686.608C930.962 687.601 931.21 688.594 931.375 689.587C931.788 692.235 932.119 694.8 932.284 697.448C932.45 699.021 934.598 699.021 934.764 697.448C937.408 667.245 946.747 637.952 962.119 611.887C961.375 611.887 960.714 611.887 959.97 611.887C961.954 616.189 961.127 620.989 960.714 625.54C960.301 629.843 959.888 634.229 959.474 638.532C958.648 646.641 957.822 654.75 956.83 662.86C954.846 680.071 952.532 697.2 949.97 714.246C949.722 715.819 952.119 716.481 952.367 714.908C955.012 697.035 957.408 679.161 959.474 661.205C960.466 652.268 961.458 643.331 962.284 634.477C963.028 626.947 965.342 617.844 962.119 610.645C961.706 609.735 960.384 609.901 959.97 610.645C944.433 637.125 934.929 666.832 932.284 697.531C933.111 697.531 933.937 697.531 934.764 697.531C934.516 694.387 934.185 691.325 933.607 688.263C933.193 686.112 933.028 682.967 931.623 681.23C929.061 678.085 925.673 681.064 924.268 683.629C918.4 694.552 916.912 708.951 917.243 721.115C917.325 722.769 919.805 722.769 919.722 721.197Z" fill="black"/>
<path d="M955.921 705.971C959.061 685.036 963.194 661.536 980.797 647.717C980.053 647.386 979.392 647.137 978.648 646.806C978.896 657.481 977.243 667.99 973.689 678.085C973.194 679.575 975.59 680.237 976.086 678.747C979.64 668.404 981.375 657.729 981.128 646.806C981.128 645.648 979.805 645.317 978.979 645.896C960.962 659.963 956.665 683.96 953.441 705.309C953.276 706.882 955.673 707.544 955.921 705.971Z" fill="black"/>
<path d="M975.673 694.552C982.367 675.437 990.136 654.502 1008.23 643.497C1007.66 643.248 1007 643 1006.42 642.752C1008.73 649.372 1005.01 657.316 1003.11 663.687C1001.13 670.39 999.144 677.01 997.161 683.712C993.111 697.035 988.896 710.274 984.516 723.514C984.02 725.004 986.417 725.666 986.913 724.176C991.623 709.944 996.169 695.711 1000.47 681.313C1002.62 674.113 1004.76 666.997 1006.83 659.798C1008.48 654.088 1010.88 648.048 1008.81 642.173C1008.57 641.428 1007.74 641.014 1007 641.428C988.317 652.847 980.218 674.279 973.276 693.973C972.78 695.38 975.177 696.042 975.673 694.552Z" fill="black"/>
<path d="M1007.16 697.531C1009.39 695.049 1011.87 693.228 1014.85 691.822C1014.27 691.325 1013.61 690.911 1013.03 690.415C1007.57 707.461 1000.38 723.928 991.623 739.567C990.88 740.974 992.946 742.215 993.772 740.809C1002.7 725.004 1009.89 708.371 1015.43 691.077C1015.76 690.001 1014.52 689.257 1013.61 689.67C1010.47 691.16 1007.74 693.146 1005.43 695.794C1004.35 696.952 1006.09 698.69 1007.16 697.531Z" fill="black"/>
<path d="M150.047 753.883C140.461 743.043 131.618 731.541 123.766 719.377C120.047 713.667 116.576 707.792 113.27 701.834C111.617 698.855 110.047 695.876 108.477 692.814C107.568 691.077 106.741 689.339 105.915 687.601C105.502 686.691 105.088 685.864 104.675 684.953C103.105 682.802 103.601 680.899 106.08 679.244C107.485 679.906 108.808 677.754 107.32 677.092C105.336 676.182 103.27 676.596 101.948 678.499C100.46 680.65 101.287 683.298 102.279 685.533C105.915 694.221 110.708 702.579 115.502 710.688C124.923 726.658 135.998 741.719 148.312 755.62C149.386 756.862 151.122 755.041 150.047 753.883Z" fill="black"/>
<path d="M149.304 733.858C122.775 696.621 96.824 655.578 93.7661 608.66C93.0223 608.908 92.1959 609.073 91.4521 609.322C114.097 650.199 137.981 690.415 162.94 729.886C163.684 729.472 164.345 729.059 165.089 728.645C164.262 727.817 164.015 726.824 164.18 725.666C164.345 724.094 161.866 724.094 161.7 725.666C161.535 727.321 161.866 728.562 162.94 729.886C163.849 731.127 165.915 730.052 165.089 728.645C140.13 689.174 116.246 648.958 93.6009 608.08C93.0223 607.005 91.2041 607.501 91.2868 608.742C94.3447 656.157 120.295 697.531 147.155 735.182C148.064 736.34 150.213 735.099 149.304 733.858Z" fill="black"/>
<path d="M141.948 681.561C135.832 668.321 132.775 654.089 132.857 639.525C132.113 639.773 131.287 639.939 130.543 640.187C146.99 672.128 163.519 703.986 179.965 735.927C180.709 737.333 182.858 736.092 182.114 734.685C165.667 702.745 149.138 670.886 132.692 638.946C132.113 637.787 130.378 638.366 130.378 639.608C130.378 654.585 133.601 669.231 139.799 682.885C140.543 684.292 142.609 683.05 141.948 681.561Z" fill="black"/>
<path d="M372.032 731.21C416.496 731.21 460.876 731.21 505.339 731.21C506.909 731.21 506.909 728.728 505.339 728.728C460.876 728.728 416.496 728.728 372.032 728.728C370.462 728.728 370.462 731.21 372.032 731.21Z" fill="black"/>
<path d="M410.958 749.166C458.397 749.166 505.835 749.166 553.191 749.166C554.761 749.166 554.761 746.684 553.191 746.684C505.752 746.684 458.314 746.684 410.958 746.684C409.388 746.684 409.388 749.166 410.958 749.166Z" fill="black"/>
<path d="M14.1786 762.654C47.6499 762.654 81.0386 762.654 114.51 762.654C116.08 762.654 116.08 760.172 114.51 760.172C81.0386 760.172 47.6499 760.172 14.1786 760.172C12.5257 760.172 12.5257 762.654 14.1786 762.654Z" fill="black"/>
<path d="M734.431 725.169C775.341 725.169 816.333 725.169 857.242 725.169C858.812 725.169 858.812 722.687 857.242 722.687C816.333 722.687 775.341 722.687 734.431 722.687C732.861 722.687 732.861 725.169 734.431 725.169Z" fill="black"/>
<path d="M2.36041 20.6493C3.51745 11.4642 14.6745 6.58202 21.782 13.1191C26.2449 17.1738 27.4019 22.718 33.435 25.0349C37.8152 26.7726 43.0218 26.6899 47.3194 24.5384C52.9393 21.725 54.9228 15.8499 58.1459 10.9677C60.1294 7.906 63.2699 4.59606 67.2369 4.67881C70.3774 4.76156 72.9394 7.07851 75.0882 9.14722C78.0634 11.9607 80.956 15.6016 85.0882 16.7601C95.0057 19.408 96.7412 6.58203 103.518 3.1066C107.733 0.955137 110.708 5.09256 112.94 8.0715C114.758 10.554 116.659 12.7054 119.138 14.4431C124.51 18.1668 131.204 19.3253 137.568 18.0013C139.138 17.6703 138.477 15.2706 136.907 15.6016C128.229 17.4221 120.295 13.7811 115.088 6.83027C112.526 3.35484 109.551 -0.782585 104.593 0.127647C95.5015 1.78262 93.1048 21.063 82.0304 12.2089C78.3113 9.31273 75.584 5.09256 71.1212 3.1066C66.4104 1.03789 61.7823 3.02384 58.4765 6.58203C53.7657 11.7124 52.3608 19.9045 45.3359 22.718C42.1127 24.0419 38.4763 24.0419 35.2532 22.9662C30.873 21.5595 28.8069 18.2495 26.4102 14.6086C18.7242 3.35484 1.86454 6.74752 0.0463451 20.5665C-0.366881 22.2215 2.11248 22.2215 2.36041 20.6493Z" fill="black"/>
<path d="M148.477 66.1608C152.113 60.7821 157.981 57.224 164.428 56.6447C171.452 55.9827 176.659 59.6237 182.775 62.2716C186.659 63.9266 191.37 64.7541 195.254 62.6854C197.32 61.5269 198.477 59.7892 199.8 57.8859C201.535 55.3207 203.436 53.3348 206.246 51.9281C211.37 49.3629 217.899 49.3629 222.858 52.2591C227.321 54.907 229.883 60.1202 234.841 62.1061C243.932 65.6643 247.321 54.8243 254.593 52.59C258.643 51.3488 261.122 55.3208 263.519 57.8032C265.668 60.0374 268.065 61.9406 270.709 63.5128C275.999 66.74 282.032 68.395 288.23 68.726C289.8 68.8087 289.8 66.3263 288.23 66.2435C280.875 65.9125 273.767 63.3474 268.065 58.6307C264.593 55.7345 261.784 50.3559 256.908 49.8594C247.238 48.8664 243.023 66.3263 232.775 57.8859C228.808 54.6588 225.998 50.5214 221.039 48.7009C216.659 47.0459 211.618 47.2114 207.238 48.8664C202.775 50.5213 199.965 53.4175 197.403 57.224C191.618 65.6643 182.94 59.2927 176.08 56.231C165.419 51.5143 152.94 55.3207 146.411 65.0023C145.419 66.2435 147.568 67.4848 148.477 66.1608Z" fill="black"/>
<path d="M927.408 228.348C929.392 225.369 931.788 222.059 935.177 220.569C939.474 218.666 942.284 221.562 945.755 223.714C950.466 226.693 956.169 228.017 961.623 227.355C966.913 226.776 971.375 224.293 975.756 221.397C980.466 218.253 985.756 213.784 991.789 213.867C1001.71 214.032 1009.64 231.492 1020.14 222.307C1023.03 219.825 1025.09 217.342 1029.23 217.177C1032.62 217.011 1036 218.17 1039.06 219.577C1044.76 222.224 1049.89 225.452 1056.33 225.617C1057.9 225.617 1057.9 223.135 1056.33 223.135C1045.26 222.886 1032.86 208.736 1021.79 217.177C1018.4 219.742 1016.58 223.3 1011.62 222.059C1007.57 220.983 1004.68 217.756 1001.46 215.274C997.491 212.212 993.194 210.64 988.235 211.798C982.698 213.122 978.152 216.929 973.442 219.99C967.16 224.045 960.466 226.362 953.028 224.376C947.408 222.886 942.78 216.598 936.664 217.508C931.54 218.335 927.904 223.135 925.259 227.107C924.35 228.431 926.499 229.672 927.408 228.348Z" fill="black"/>
<path d="M982.367 271.956C990.88 262.44 1006.33 252.593 1018.32 262.771C1021.79 265.75 1023.19 271.542 1027.82 273.032C1032.78 274.604 1036.91 270.549 1040.22 267.405C1045.01 262.854 1051.87 257.641 1058.9 259.213C1064.43 260.454 1066.91 266.164 1071.38 269.06C1075.84 271.956 1079.48 269.887 1083.94 268.15C1091.29 265.336 1099.23 265.75 1106.5 268.646C1107.99 269.225 1108.65 266.826 1107.16 266.247C1100.88 263.681 1093.94 262.937 1087.33 264.509C1084.27 265.171 1081.62 266.743 1078.65 267.653C1074.43 268.977 1071.71 266.329 1068.98 263.516C1065.51 259.958 1062.2 256.565 1056.91 256.399C1051.54 256.234 1046.42 258.965 1042.37 262.192C1039.31 264.509 1036.91 267.819 1033.52 269.722C1028.32 272.618 1025.84 268.315 1023.28 264.592C1020.38 260.454 1016.25 257.641 1011.29 256.565C999.061 253.834 988.4 261.364 980.632 270.053C979.557 271.377 981.293 273.115 982.367 271.956Z" fill="black"/>
</svg>
