<svg width="1238" height="703" viewBox="0 0 1238 703" fill="none" xmlns="http://www.w3.org/2000/svg">
<path d="M85.8159 532.956C143.275 509.122 209.353 518.599 269.77 527.581C301.964 532.39 334.074 536.845 366.691 539.109C401.589 541.584 436.656 542.079 471.638 540.665C539.322 537.836 605.823 526.661 672.577 517.396C739.331 508.202 807.437 500.989 875.037 507.707C940.861 514.285 1005.08 537.553 1072.17 532.885C1079.69 532.39 1087.13 531.47 1094.56 530.197C1096.17 529.915 1095.49 527.864 1093.89 528.146C1026.37 539.604 960.043 516.972 894.218 507.849C828.309 498.725 761.301 503.747 695.73 512.163C627.624 520.862 560.109 533.168 491.327 537.482C421.953 541.796 352.917 537.694 284.473 527.581C225.915 518.882 162.71 507.424 104.575 524.044C97.7303 526.025 91.0548 528.359 84.5484 531.046C83.1119 531.753 84.3794 533.592 85.8159 532.956Z" fill="black"/>
<path d="M880.698 626.098C877.571 620.582 859.658 584.937 875.966 585.786C876.895 585.857 877.318 585.079 877.149 584.442C875.037 573.409 875.29 562.094 877.994 551.061C879.261 545.969 881.036 541.018 883.317 536.209C885.345 531.895 890.162 519.659 897.936 525.388C902.668 528.924 902.161 536.562 902.668 541.372C903.175 547.029 903.428 552.687 903.428 558.416C903.344 569.873 902.161 581.33 899.879 592.646C898.612 598.658 897.091 604.669 895.232 610.539C894.218 613.722 893.119 616.834 892.021 619.945C890.922 622.774 890.077 627.088 886.19 628.149C884.669 628.574 885.345 630.625 886.866 630.2C892.274 628.644 893.457 623.269 894.894 619.238C897.344 612.59 899.372 605.801 901.062 598.941C904.273 585.362 905.963 571.5 905.963 557.638C905.963 550.424 905.541 543.21 904.696 536.067C904.104 531.541 903.682 526.025 898.781 523.125C887.035 516.194 880.782 535.219 878.501 541.372C873.178 555.446 871.995 570.297 874.783 584.867C875.205 584.442 875.628 583.947 875.966 583.523C865.826 583.028 866.08 593.141 867.347 598.799C869.544 608.559 873.347 618.036 878.501 627.018C879.261 628.432 881.374 627.301 880.698 626.098Z" fill="black"/>
<path d="M906.217 567.893C905.963 563.084 906.555 558.275 908.16 553.677C908.921 551.414 909.935 549.222 911.118 547.029C911.709 546.039 912.301 545.049 912.977 544.13C913.399 543.635 913.906 543.21 914.329 542.715C916.864 540.594 918.976 540.947 920.581 543.847C920.328 545.191 922.525 545.756 923.032 544.413C924.722 539.745 928.017 533.946 934.777 533.663C941.96 533.38 943.903 539.462 944.157 544.271C944.748 553.536 942.805 563.013 939.932 571.924C934.017 590.1 923.116 606.862 912.301 623.34C911.54 624.543 913.737 625.603 914.497 624.401C927.933 603.891 941.791 582.603 945.678 559.194C946.523 553.96 947.114 548.585 946.607 543.281C946.269 539.603 945.086 535.502 941.368 533.168C937.819 530.975 933.003 531.187 929.285 532.885C924.468 535.148 922.018 539.533 920.497 543.776C921.342 543.988 922.102 544.13 922.947 544.342C923.37 541.937 921.764 539.886 918.807 539.321C915.596 538.684 912.808 540.452 911.033 542.574C905.034 549.576 903.175 559.477 903.597 567.822C903.682 569.237 906.217 569.237 906.217 567.893Z" fill="black"/>
<path d="M846.56 660.399C882.895 643.779 925.989 644.84 965.788 649.649C1009.14 654.883 1052.74 664.501 1096.76 659.904C1121.18 657.358 1145.94 650.357 1170.61 655.237C1172.22 655.519 1172.9 653.539 1171.29 653.185C1149.91 648.942 1128.45 653.398 1107.32 656.439C1084.43 659.692 1061.44 659.409 1038.37 657.075C995.11 652.761 952.438 642.718 908.498 644.628C886.528 645.547 864.728 649.649 845.293 658.49C843.856 659.197 845.124 661.036 846.56 660.399Z" fill="black"/>
<path d="M957.845 611.671C990.209 614.146 1021.64 606.225 1052.91 600.285C1069.38 597.173 1086.11 594.485 1103.01 594.344C1120.68 594.132 1138 597.102 1155.32 599.577C1173.74 602.265 1192.33 604.245 1210.92 601.345C1212.53 601.062 1211.85 599.082 1210.24 599.294C1175.68 604.669 1141.88 592.646 1107.49 592.151C1075.3 591.727 1044.29 600.355 1013.11 605.801C994.941 608.983 976.52 610.964 957.93 609.549C956.24 609.479 956.24 611.6 957.845 611.671Z" fill="black"/>
<path d="M206.649 517.679C203.692 514.992 201.072 511.95 199.129 508.626C198.199 507 197.354 505.373 196.763 503.605C196.256 502.261 195.749 500.847 196.087 499.503C196.425 497.947 198.453 494.482 201.41 496.745C202.34 497.452 203.861 496.745 203.523 495.684C198.875 481.681 197.777 467.465 196.594 453.038C195.411 438.681 194.143 423.97 197.523 409.755C198.368 406.36 198.96 401.409 203.523 400.207C209.184 398.651 213.156 403.673 214.761 407.421C217.634 413.928 219.409 421 221.268 427.789C225.239 442.217 227.943 456.857 229.548 471.567C231.238 487.763 231.492 504.029 230.393 520.225C230.309 521.569 232.844 521.569 232.928 520.225C235.21 487.268 231.661 454.028 222.197 421.99C221.014 418.03 219.831 414.14 218.479 410.25C217.381 407.138 216.198 403.956 213.747 401.48C210.452 398.227 204.199 396.459 199.889 399.429C197.354 401.197 196.509 404.168 195.833 406.714C194.819 410.462 194.059 414.21 193.636 418.029C192.622 426.163 192.791 434.367 193.298 442.571C194.481 460.605 195.411 478.923 201.157 496.391C201.833 496.038 202.593 495.684 203.269 495.33C198.622 491.724 193.298 496.321 193.552 500.564C193.89 507.424 199.636 514.426 204.959 519.235C205.973 520.225 207.748 518.74 206.649 517.679Z" fill="black"/>
<path d="M231.407 456.574C227.943 449.855 229.886 442.642 231.999 435.852C233.858 429.699 235.717 423.688 235.717 417.323C235.801 410.109 235.21 403.107 237.407 396.035C238.421 392.781 239.857 389.67 241.632 386.629C242.392 385.355 243.322 383.305 244.589 382.385C248.392 379.556 250.335 384.79 251.18 386.77C256.926 399.995 257.94 414.281 258.194 428.214C258.532 442.854 258.025 457.494 256.757 472.063C255.321 488.824 252.786 505.515 249.321 522.135C249.068 523.479 251.518 524.044 251.772 522.701C258.785 489.461 261.996 455.513 260.475 421.849C260.137 414.069 259.377 406.219 257.518 398.581C256.673 394.832 255.49 391.084 254.053 387.477C253.039 385.002 252.025 381.607 249.321 379.98C243.406 376.374 239.435 385.214 237.829 388.397C234.534 394.832 232.928 401.693 232.928 408.694C232.928 413.362 233.351 418.03 232.759 422.698C232.168 427.224 230.562 431.538 229.295 435.923C227.098 443.207 225.493 450.563 229.126 457.706C229.886 458.837 232.083 457.776 231.407 456.574Z" fill="black"/>
<path d="M116.827 362.3C164.991 332.242 214.17 301.972 270.024 282.453C297.57 272.834 326.722 266.115 356.551 264.135C389.505 261.943 422.629 265.62 454.569 272.551C519.803 286.837 579.037 314.42 640.721 336.344C700.462 357.632 763.075 371.564 826.957 380.688C890.922 389.811 955.649 394.55 1020.29 398.722C1028.32 399.217 1036.35 399.783 1044.37 400.278C1045.98 400.349 1045.98 398.227 1044.37 398.156C978.21 393.984 911.963 389.74 846.391 381.183C781.581 372.767 717.277 360.107 656.353 339.527C594.5 318.663 536.027 290.869 472.061 274.532C440.965 266.611 408.687 261.377 376.07 261.377C346.073 261.377 316.414 266.186 288.191 274.39C231.492 290.939 181.3 319.865 133.304 349.428C127.389 353.105 121.474 356.783 115.559 360.461C114.207 361.309 115.475 363.148 116.827 362.3Z" fill="black"/>
<path d="M845.884 379.414C897.682 380.334 947.706 367.745 997.391 357.136C1022.91 351.691 1048.6 346.669 1074.79 344.335C1100.9 341.931 1127.27 342.497 1153.12 346.598C1182.36 351.196 1210.5 360.107 1236.1 372.695C1237.54 373.403 1238.8 371.564 1237.37 370.857C1192.67 348.932 1140.62 338.465 1088.9 341.223C1036.18 343.982 985.899 358.48 934.693 368.24C905.541 373.827 875.797 377.858 845.8 377.363C844.279 377.293 844.279 379.414 845.884 379.414Z" fill="black"/>
<path d="M1114.76 526.378C1150.93 521.781 1187.85 521.64 1224.1 526.095C1225.71 526.307 1226.38 524.256 1224.78 524.044C1188.02 519.589 1150.84 519.73 1114.08 524.327C1112.48 524.539 1113.15 526.52 1114.76 526.378Z" fill="black"/>
<path d="M2.07725 461.525C29.3704 433.801 58.9451 407.633 90.5477 383.375C91.7307 382.456 89.9562 380.97 88.7732 381.89C57.0861 406.148 27.5114 432.245 0.302765 460.04C-0.711223 461.1 1.06326 462.586 2.07725 461.525Z" fill="black"/>
<path d="M983.956 76.081C972.548 79.405 963.591 71.4133 958.014 64.1287C952.522 57.0564 948.551 49.3475 948.551 40.7192C948.635 24.5235 961.563 10.3081 979.477 4.65018C996.039 -0.512649 1016.23 2.24557 1029.08 12.7127C1042.34 23.5334 1045.72 40.3656 1037.36 54.086C1034.99 57.9758 1031.95 61.6534 1028.91 65.1896C1027.13 67.2406 1025.44 69.5037 1022.99 71.1304C1020.12 72.9692 1016.91 73.3228 1013.45 73.6764C1001.62 74.8787 989.702 75.9396 977.787 77.0712C976.182 77.2126 976.182 79.3343 977.787 79.1929C990.631 77.9906 1003.73 77.2126 1016.49 75.5152C1026.88 74.1008 1032.46 65.331 1037.36 58.3294C1047.33 44.1139 1046.57 26.7867 1033.73 13.915C1020.97 1.11399 998.489 -3.05871 979.9 2.24557C961.225 7.62056 947.283 21.6946 946.016 38.3853C945.255 48.9232 950.24 58.6123 957.254 67.0991C963.338 74.4544 973.055 81.3853 984.463 78.0613C986.153 77.7077 985.477 75.6567 983.956 76.081Z" fill="black"/>
<path d="M212.057 102.673C208.508 95.3886 217.803 89.4478 225.662 88.9527C234.027 88.4577 242.054 91.4281 250.166 92.7011C265.461 95.1764 281.178 94.1863 295.965 90.0843C310.161 86.1238 324.019 79.6172 339.313 79.3343C355.03 79.1222 369.057 86.9018 384.942 85.2751C392.632 84.4972 400.068 82.4462 407.842 81.9511C415.024 81.456 425.84 82.5876 428.375 89.4478C430.91 96.308 419.418 102.037 413.334 104.512C406.574 107.27 399.054 108.755 391.618 108.826C383.675 108.826 376.577 106.846 369.141 104.795C362.297 102.885 355.537 101.754 348.354 101.895C334.665 102.107 321.484 105.785 308.386 108.826C300.274 110.736 291.993 112.504 283.544 113.069C274.84 113.635 266.897 112.362 258.532 110.665C250.251 108.968 242.984 109.604 234.619 110.594C229.633 111.16 224.394 111.514 219.747 109.463C215.606 107.624 212.226 104.37 213.24 100.198C213.578 98.8541 211.128 98.2883 210.79 99.632C209.522 104.512 212.902 108.614 217.972 111.019C224.817 114.272 232.422 112.928 239.858 112.009C245.012 111.372 249.828 111.231 254.983 112.079C259.546 112.857 264.024 114.13 268.672 114.767C275.939 115.757 283.29 115.403 290.557 114.484C307.119 112.221 322.751 106.634 339.313 104.653C348.185 103.593 356.973 103.875 365.592 106.068C373.619 108.119 381.224 110.736 389.674 110.948C403.279 111.372 421.108 106.846 429.051 96.9445C432.6 92.4889 431.501 87.3261 426.685 83.9314C421.361 80.0416 413.926 79.4051 407.166 79.9709C398.462 80.6781 390.097 83.1534 381.393 83.507C371.676 83.9314 362.719 80.8195 353.424 78.8393C336.102 75.1616 320.892 79.9001 304.837 85.1337C295.035 88.3162 285.233 90.933 274.671 91.711C263.179 92.5597 252.194 91.1452 241.041 88.7406C233.098 87.0432 223.972 85.2751 216.536 89.1649C210.874 92.1353 206.987 97.7225 209.607 103.239C210.198 104.441 212.649 103.946 212.057 102.673Z" fill="black"/>
<path d="M918.553 219.438C930.721 209.537 948.382 209.678 964.267 210.951C982.857 212.436 1000.86 214.417 1019.61 212.719C1029.25 211.8 1038.63 210.103 1048.01 208.052C1057.81 205.93 1067.86 203.667 1078.17 203.95C1088.57 204.232 1098.28 207.698 1108.51 208.9C1117.8 209.961 1127.18 209.042 1136.39 207.556C1144.67 206.283 1152.87 204.162 1161.4 204.515C1168.92 204.798 1178.13 207.981 1177.46 215.619C1176.78 222.762 1167.15 227.713 1159.46 228.774C1149.66 230.047 1139.69 227.076 1129.97 226.44C1111.72 225.237 1097.94 235.492 1080.62 238.109C1062.37 240.867 1045.22 232.451 1027.9 229.339C1006.6 225.591 986.406 233.371 965.619 236.199C955.226 237.614 943.143 239.524 932.665 237.755C927.51 236.836 922.609 234.714 920.074 230.683C917.793 226.935 917.708 222.408 921.511 219.367C922.694 218.448 920.919 216.892 919.736 217.882C914.835 221.772 915.089 227.925 918.469 232.593C922.525 238.18 930.299 240.089 937.65 240.443C959.282 241.504 980.407 235.351 1001.19 231.673C1012.77 229.622 1023.42 230.329 1034.74 233.017C1044.2 235.28 1053.33 238.392 1063.05 239.877C1072.26 241.292 1081.13 240.867 1089.92 238.18C1099.13 235.422 1107.75 231.107 1117.38 229.269C1135.63 225.803 1156.16 237.048 1172.56 226.298C1178.05 222.691 1181.85 216.892 1179.23 211.093C1176.95 206.071 1171.12 203.596 1165.12 202.889C1157.35 201.899 1149.83 203.313 1142.22 204.657C1130.14 206.778 1117.8 208.476 1105.47 206.496C1094.82 204.798 1084.76 201.616 1073.69 202.04C1063.22 202.464 1053.08 205.01 1042.94 207.132C1030.09 209.82 1016.99 211.376 1003.73 211.588C992.236 211.729 980.914 210.527 969.506 209.466C951.508 207.769 930.975 206.708 916.948 218.094C915.596 218.872 917.37 220.357 918.553 219.438Z" fill="black"/>
<path d="M368.211 700.288C364.409 697.388 361.113 694.135 358.409 690.457C357.142 688.76 355.959 686.921 355.03 685.082C354.523 684.021 353.678 682.465 353.847 681.263C354.1 679.212 356.466 676.1 359.339 678.01C360.437 678.788 362.043 677.868 361.367 676.737C358.156 671.503 356.212 665.492 356.55 659.551C356.635 658.419 356.804 657.358 357.311 656.298C357.734 655.378 358.325 654.53 359.085 653.752C360.606 652.479 361.958 652.479 363.141 653.893C366.268 655.803 367.535 659.48 368.972 662.38C374.126 672.706 377.929 683.456 380.548 694.418C381.393 694.206 382.154 694.064 382.999 693.852C380.717 688.548 378.943 683.102 377.844 677.515C377.084 673.554 375.732 660.4 385.449 664.784C391.702 667.613 392.885 676.03 392.885 681.334C392.97 687.204 391.618 692.932 390.266 698.661C389.928 700.005 392.378 700.571 392.716 699.227C394.406 691.942 396.181 684.375 395.082 676.878C394.237 671.432 391.364 662.734 383.506 661.885C377.253 661.248 374.718 666.553 374.549 670.867C374.211 678.717 377.422 687.204 380.548 694.488C381.14 695.761 383.337 695.266 382.999 693.923C381.055 685.719 378.351 677.585 374.971 669.735C373.45 666.199 371.845 662.733 369.986 659.268C368.634 656.651 367.282 652.903 363.986 651.418C358.747 649.013 355.03 653.893 354.185 657.571C352.664 664.289 355.452 671.998 359.001 677.939C359.677 677.515 360.353 677.09 361.029 676.666C355.874 673.059 350.636 678.222 351.396 682.748C352.664 689.962 360.268 697.105 366.352 701.914C367.62 702.692 369.394 701.207 368.211 700.288Z" fill="black"/>
<path d="M266.475 167.951C285.233 164.768 304.33 161.586 323.596 163C342.101 164.344 359.592 169.86 377.506 173.68C412.489 181.035 448.739 183.652 484.736 183.581C505.353 183.51 525.887 182.661 546.42 181.247C548.025 181.105 548.025 178.984 546.42 179.125C509.747 181.53 472.737 182.52 435.98 179.691C417.305 178.277 398.716 175.801 380.464 172.124C363.057 168.587 346.157 163.283 328.328 161.374C307.288 159.11 286.332 162.505 265.799 165.971C264.193 166.183 264.869 168.234 266.475 167.951Z" fill="black"/>
<path d="M464.202 168.092C526.225 165.405 586.472 147.724 649.002 150.977C650.607 151.048 650.607 148.926 649.002 148.856C586.557 145.602 526.225 163.354 464.202 165.971C462.512 166.041 462.512 168.163 464.202 168.092Z" fill="black"/>
<path d="M974.492 521.145C972.041 515.982 970.774 510.536 970.858 504.949C970.858 502.12 971.281 499.291 972.041 496.533C972.717 493.987 976.097 487.409 979.984 491.582C980.66 492.289 982.266 491.724 982.181 490.804C981.336 484.722 981.505 478.64 982.857 472.628C983.449 470.011 984.294 467.395 985.392 464.849C986.068 463.293 986.744 461.595 987.674 460.11C989.026 457.988 990.547 457.423 993.082 456.362C997.645 454.594 997.729 449.997 998.828 446.319C1000.35 441.298 1002.12 436.206 1005.59 431.891C1007.62 429.345 1011.42 425.243 1015.56 426.163C1018.85 426.87 1020.04 429.84 1020.63 432.387C1021.98 437.974 1021.05 444.197 1020.71 449.855C1019.95 462.373 1018.01 474.891 1014.97 487.127C1011.59 500.564 1006.77 513.719 1000.77 526.52C1000.18 527.793 1002.63 528.358 1003.22 527.085C1015.73 500.635 1022.74 472.416 1023.59 443.914C1023.75 438.398 1024.6 420.01 1011.59 424.253C1006.09 426.092 1002.38 431.679 1000.18 435.993C998.912 438.469 997.983 441.015 997.138 443.561C995.87 447.451 995.87 452.26 991.392 454.523C988.772 455.867 987.082 456.433 985.561 458.979C983.787 461.878 982.519 465.202 981.505 468.385C979.224 475.669 978.632 483.237 979.731 490.734C980.491 490.451 981.167 490.238 981.928 489.956C980.238 488.187 977.449 487.763 974.999 488.683C971.703 489.956 970.52 493.138 969.76 495.826C967.394 504.383 968.408 513.365 972.21 521.569C972.633 522.983 975.083 522.418 974.492 521.145Z" fill="black"/>
<path d="M950.494 517.467C946.861 512.728 943.312 507.778 941.453 502.261C940.608 499.715 940.101 497.098 940.27 494.482C940.523 491.582 941.96 489.319 943.143 486.631C945.002 482.317 942.044 478.215 940.861 474.043C940.27 472.062 936.805 454.452 944.241 456.857C945.171 457.14 946.253 456.927 946 456.22C943.55 447.097 940.777 436.771 944.241 427.648C945.762 423.617 951.931 413.15 958.268 417.959C962.155 420.929 964.352 426.446 966.126 430.406C973.9 448.299 977.28 468.172 978.801 487.126C978.886 488.47 981.421 488.47 981.336 487.126C980.322 474.75 978.294 462.444 975.168 450.35C972.464 439.742 969.506 427.931 962.155 418.737C959.873 415.908 956.578 413.503 952.269 414.988C947.706 416.544 944.579 421.212 942.805 424.748C937.819 434.862 940.608 445.895 943.312 456.22C943.819 455.796 944.326 455.372 944.833 454.947C940.354 453.462 937.65 457.705 936.974 460.888C935.622 467.96 938.749 474.538 940.692 481.256C941.875 485.358 938.918 488.258 938.073 492.077C937.397 494.765 937.566 497.452 938.157 500.14C939.594 506.858 943.988 513.011 948.297 518.74C949.142 519.659 951.339 518.598 950.494 517.467Z" fill="black"/>
<path d="M1018.35 481.893C1020.63 475.316 1022.99 468.739 1027.81 463.152C1032.46 457.777 1037.87 452.684 1043.02 447.663C1045.72 445.117 1048.43 442.571 1051.39 440.237C1052.91 439.035 1054.43 437.762 1056.37 436.913C1060.17 435.216 1062.71 437.408 1063.72 440.308C1066 446.956 1064.15 454.17 1062.12 460.747C1054.34 485.642 1040.82 509.193 1022.74 530.056C1021.81 531.188 1024.01 532.248 1024.94 531.117C1041.58 511.951 1054.26 490.522 1062.37 467.819C1064.31 462.374 1066.26 456.786 1066.93 451.129C1067.53 446.532 1067.69 440.166 1064.4 436.206C1057.47 428.002 1043.11 444.339 1039.3 448.087C1034.4 452.897 1029.16 457.706 1024.85 462.939C1020.37 468.456 1018.09 474.892 1015.9 481.257C1015.39 482.601 1017.84 483.166 1018.35 481.893Z" fill="black"/>
<path d="M1013.45 427.012C1010.24 459.969 1001.79 492.36 988.35 523.408C987.758 524.681 990.209 525.247 990.8 523.974C1004.32 492.714 1012.77 460.11 1015.98 427.012C1016.07 425.668 1013.53 425.668 1013.45 427.012Z" fill="black"/>
<path d="M990.462 455.513C995.025 469.87 997.391 484.51 997.56 499.362C997.56 500.706 1000.1 500.706 1000.1 499.362C999.926 484.368 997.56 469.446 992.913 454.948C992.49 453.604 990.04 454.17 990.462 455.513Z" fill="black"/>
<path d="M1001.95 439.459C1004.91 449.219 1006.35 459.191 1006.43 469.234C1006.43 470.577 1008.97 470.577 1008.97 469.234C1008.88 458.979 1007.36 448.795 1004.4 438.893C1003.98 437.55 1001.53 438.115 1001.95 439.459Z" fill="black"/>
<path d="M994.772 515.77C1001.28 511.526 1007.11 506.646 1012.18 501.272C1013.19 500.211 1011.42 498.725 1010.4 499.786C1005.25 505.232 999.504 510.041 992.997 514.285C991.73 515.133 993.504 516.618 994.772 515.77Z" fill="black"/>
<path d="M950.748 416.827C958.099 442.5 963.845 468.456 967.816 494.623C967.985 495.967 970.52 495.967 970.351 494.623C966.295 468.243 960.549 442.076 953.198 416.261C952.86 414.918 950.41 415.484 950.748 416.827Z" fill="black"/>
<path d="M940.692 441.156C948.128 444.904 954.465 449.714 959.535 455.654C960.465 456.786 962.662 455.725 961.732 454.594C956.409 448.37 949.818 443.278 942.044 439.388C940.523 438.61 939.256 440.449 940.692 441.156Z" fill="black"/>
<path d="M973.055 455.937C970.013 462.302 967.563 468.809 965.704 475.528C965.366 476.871 967.732 477.437 968.154 476.093C970.013 469.445 972.464 462.868 975.506 456.503C976.097 455.23 973.647 454.664 973.055 455.937Z" fill="black"/>
<path d="M940.523 488.046C949.818 490.238 958.86 492.784 967.817 495.755C969.338 496.25 970.014 494.199 968.493 493.704C959.536 490.733 950.41 488.187 941.199 485.995C939.594 485.641 938.918 487.692 940.523 488.046Z" fill="black"/>
<path d="M1059.58 437.55C1048.34 470.295 1017.25 495.402 1007.28 528.571C1006.85 529.915 1009.31 530.48 1009.73 529.137C1019.7 495.967 1050.79 470.86 1062.03 438.115C1062.54 436.772 1060.09 436.206 1059.58 437.55Z" fill="black"/>
<path d="M1036.94 451.341C1034.82 462.798 1032.63 474.255 1030.51 485.712C1030.26 487.056 1032.71 487.622 1032.96 486.278C1035.08 474.821 1037.27 463.364 1039.39 451.906C1039.64 450.563 1037.19 449.997 1036.94 451.341Z" fill="black"/>
<path d="M1039.47 476.518C1046.99 471.992 1054.85 467.89 1063.05 464.142C1064.48 463.505 1063.22 461.666 1061.78 462.303C1053.58 465.98 1045.72 470.082 1038.2 474.679C1036.85 475.528 1038.12 477.367 1039.47 476.518Z" fill="black"/>
<path d="M1015.22 517.538C1022.91 509.97 1033.89 506.151 1044.71 502.544C1046.23 502.049 1045.56 499.998 1044.03 500.493C1032.88 504.242 1021.47 508.202 1013.45 516.053C1012.35 517.113 1014.12 518.599 1015.22 517.538Z" fill="black"/>
<path d="M892.443 524.257C895.57 540.806 892.95 557.426 889.993 573.905C887.12 590.1 884.247 606.367 881.374 622.562C881.12 623.906 883.571 624.472 883.824 623.128C886.866 606.013 889.993 588.898 892.95 571.783C895.739 555.87 897.936 539.745 894.894 523.762C894.556 522.347 892.19 522.913 892.443 524.257Z" fill="black"/>
<path d="M875.966 554.456C878.839 564.357 882.726 573.975 887.627 583.311C888.303 584.584 890.5 583.452 889.824 582.25C885.092 573.056 881.289 563.65 878.416 553.89C877.994 552.617 875.543 553.183 875.966 554.456Z" fill="black"/>
<path d="M901.4 534.37C900.217 540.806 897.429 546.676 893.035 551.98C892.105 553.112 894.302 554.173 895.232 553.041C899.71 547.595 902.668 541.442 903.851 534.865C904.02 533.592 901.569 533.026 901.4 534.37Z" fill="black"/>
<path d="M936.298 535.431C925.905 565.63 912.639 595.051 896.753 623.553C896.077 624.755 898.274 625.886 898.95 624.613C914.92 595.97 928.271 566.337 938.749 535.997C939.171 534.724 936.721 534.158 936.298 535.431Z" fill="black"/>
<path d="M929.623 534.158C929.285 541.018 929.031 547.808 928.693 554.668C928.609 556.012 931.144 556.012 931.228 554.668C931.566 547.808 931.82 541.018 932.158 534.158C932.242 532.814 929.707 532.814 929.623 534.158Z" fill="black"/>
<path d="M910.864 543.352C906.301 559.335 910.864 576.026 913.568 592.01C913.821 593.353 916.272 592.788 916.018 591.444C913.399 575.885 908.921 559.548 913.314 543.918C913.737 542.574 911.287 542.008 910.864 543.352Z" fill="black"/>
<path d="M907.146 608.488C915.342 606.791 922.947 603.891 929.792 599.789C931.144 599.011 929.876 597.173 928.524 597.951C921.849 601.911 914.497 604.74 906.47 606.437C904.864 606.72 905.54 608.771 907.146 608.488Z" fill="black"/>
<path d="M202.847 401.127C211.381 439.742 216.705 478.852 218.648 518.033C218.733 519.376 221.268 519.376 221.183 518.033C219.24 478.569 213.916 439.317 205.297 400.561C204.959 399.217 202.509 399.783 202.847 401.127Z" fill="black"/>
<path d="M193.636 445.965C202.593 455.372 209.776 465.768 215.015 476.942C215.606 478.215 218.057 477.649 217.465 476.376C212.057 464.849 204.706 454.169 195.495 444.48C194.481 443.419 192.622 444.905 193.636 445.965Z" fill="black"/>
<path d="M218.986 420.01C215.944 430.548 213.663 441.227 212.057 451.977C211.888 453.321 214.423 453.321 214.592 451.977C216.113 441.439 218.395 430.972 221.437 420.576C221.775 419.232 219.324 418.666 218.986 420.01Z" fill="black"/>
<path d="M245.519 382.031C247.04 428.214 244.336 474.396 237.407 520.225C237.238 521.569 239.773 521.569 239.942 520.225C246.871 474.396 249.575 428.214 248.054 382.031C247.969 380.688 245.434 380.688 245.519 382.031Z" fill="black"/>
<path d="M231.323 430.618C237.407 442.712 241.632 455.372 243.913 468.385C244.167 469.729 246.617 469.163 246.364 467.819C244.082 454.806 239.857 442.146 233.774 430.053C233.098 428.85 230.647 429.345 231.323 430.618Z" fill="black"/>
<path d="M241.04 510.607C244.674 504.666 249.49 499.503 255.405 495.048C256.588 494.129 254.814 492.643 253.631 493.563C247.547 498.089 242.561 503.464 238.843 509.546C238.083 510.749 240.28 511.809 241.04 510.607Z" fill="black"/>
<path d="M237.407 389.881C239.604 395.752 242.054 401.48 244.758 407.209C245.35 408.482 247.8 407.916 247.209 406.643C244.42 400.985 241.97 395.186 239.857 389.316C239.35 387.972 236.9 388.538 237.407 389.881Z" fill="black"/>
<path d="M55.903 668.532C111.334 664.006 167.442 665.421 222.366 672.917C237.829 675.039 253.293 677.656 268.587 680.697C270.192 680.98 270.868 679 269.263 678.646C215.099 667.825 159.414 662.875 103.729 663.935C87.7591 664.289 71.7888 665.067 55.903 666.411C54.2975 666.481 54.213 668.603 55.903 668.532Z" fill="black"/>
<path d="M552.757 688.83C552.842 685.789 561.883 685.223 564.08 685.436C567.798 685.719 571.347 687.345 573.375 689.962C580.05 698.59 566.53 702.056 558.757 699.934C557.236 699.51 556.56 701.561 558.081 701.985C563.489 703.541 570.671 703.329 575.065 699.722C578.783 696.681 578.022 691.801 575.234 688.477C572.107 684.799 566.953 682.96 561.63 683.243C557.912 683.455 550.307 684.87 550.222 688.83C550.222 690.174 552.757 690.174 552.757 688.83Z" fill="black"/>
<path d="M552.335 687.699C557.743 681.334 569.066 678.434 577.516 676.171C586.895 673.696 596.612 672.21 606.499 671.786C608.104 671.715 608.104 669.594 606.499 669.664C595.429 670.159 584.444 671.857 573.967 674.898C565.517 677.373 555.546 680.273 550.138 686.638C549.208 687.77 551.405 688.831 552.335 687.699Z" fill="black"/>
<path d="M607.766 672.069C614.272 672.705 619.511 676.949 620.779 682.253C621.117 683.597 623.567 683.031 623.229 681.687C621.708 675.322 615.371 670.725 607.766 669.947C606.076 669.806 606.161 671.927 607.766 672.069Z" fill="black"/>
<path d="M610.893 669.876C620.356 664.926 629.567 671.291 631.51 679.283C631.848 680.626 634.299 680.061 633.961 678.717C631.595 669.311 620.441 662.38 609.625 668.038C608.273 668.816 609.541 670.654 610.893 669.876Z" fill="black"/>
<path d="M621.371 683.738C626.609 685.152 632.186 682.677 634.045 678.434C634.637 677.161 632.186 676.595 631.595 677.868C630.243 681.05 625.849 682.748 622.046 681.687C620.441 681.263 619.765 683.314 621.371 683.738Z" fill="black"/>
<path d="M551.997 686.638C547.603 688.759 547.856 693.781 549.546 697.246C551.405 701.207 555.968 703.823 561.123 702.762C562.728 702.409 562.052 700.429 560.447 700.712C556.475 701.49 553.264 699.368 551.912 696.397C550.814 693.993 550.053 690.032 553.349 688.476C554.701 687.769 553.433 685.93 551.997 686.638Z" fill="black"/>
<path d="M553.18 694.7C550.645 688.972 562.982 685.506 567.291 688.76C569.995 690.811 569.319 694.064 566.446 695.761C565.179 696.539 563.573 697.105 561.968 696.822C556.306 695.903 560.954 690.457 563.742 693.569C564.756 694.63 566.953 693.569 565.939 692.508C562.644 688.901 555.377 690.74 556.729 695.62C558.165 700.995 567.291 699.085 570.08 695.761C573.966 691.093 569.742 685.435 563.32 685.365C557.236 685.294 548.025 688.972 550.814 695.195C551.321 696.539 553.771 695.973 553.18 694.7Z" fill="black"/>
<path d="M573.375 700.217C591.12 697.034 608.02 691.588 623.736 684.021C625.173 683.314 623.905 681.475 622.469 682.182C606.921 689.679 590.19 694.983 572.699 698.166C571.094 698.448 571.77 700.499 573.375 700.217Z" fill="black"/>
<path d="M621.032 666.553C635.397 656.439 649.762 644.416 668.183 639.819C669.704 639.395 669.112 637.415 667.507 637.768C648.664 642.507 633.961 654.742 619.258 665.067C617.99 665.916 619.849 667.401 621.032 666.553Z" fill="black"/>
<path d="M668.014 640.597C677.478 643.284 684.322 650.357 685.336 658.702C685.505 660.046 688.04 660.046 687.871 658.702C686.773 649.366 679.337 641.516 668.69 638.546C667.169 638.121 666.493 640.172 668.014 640.597Z" fill="black"/>
<path d="M633.792 680.485C651.114 674.049 668.352 667.331 685.421 660.329C686.857 659.763 685.59 657.924 684.153 658.49C667.085 665.492 649.847 672.14 632.525 678.646C631.004 679.212 632.356 681.051 633.792 680.485Z" fill="black"/>
<path d="M610.132 670.866C610.724 670.513 611.315 670.23 611.822 669.876C612.414 669.523 612.667 668.957 612.245 668.391C611.907 667.896 611.062 667.684 610.47 668.037C609.879 668.391 609.287 668.674 608.78 669.028C608.189 669.381 607.935 669.947 608.358 670.513C608.696 670.937 609.541 671.22 610.132 670.866Z" fill="black"/>
<path d="M359.424 653.327C361.029 669.169 365.254 684.658 372.098 699.439C372.69 700.712 375.14 700.146 374.549 698.873C367.789 684.233 363.48 668.957 361.959 653.327C361.874 651.983 359.339 651.983 359.424 653.327Z" fill="black"/>
<path d="M355.029 685.082C360.268 687.345 364.916 690.315 369.056 693.922C370.155 694.912 371.929 693.427 370.831 692.437C366.606 688.689 361.789 685.648 356.297 683.314C354.86 682.606 353.593 684.445 355.029 685.082Z" fill="black"/>
<path d="M373.535 674.474C369.901 678.858 368.296 683.951 368.887 689.255C369.056 690.599 371.591 690.599 371.422 689.255C370.915 684.304 372.352 679.707 375.732 675.534C376.577 674.474 374.38 673.413 373.535 674.474Z" fill="black"/>
<path d="M381.055 668.603C383.506 677.373 384.266 686.284 383.168 695.266C382.999 696.61 385.534 696.61 385.703 695.266C386.717 686.143 385.956 677.019 383.421 668.037C383.168 666.764 380.717 667.33 381.055 668.603Z" fill="black"/>
<path d="M377.337 671.715C379.365 674.969 381.393 678.293 383.421 681.546C384.182 682.748 386.379 681.687 385.618 680.485C383.59 677.232 381.562 673.908 379.534 670.654C378.774 669.452 376.577 670.513 377.337 671.715Z" fill="black"/>
</svg>
