<svg width="1149" height="768" viewBox="0 0 1149 768" fill="none" xmlns="http://www.w3.org/2000/svg">
<path d="M970.749 429.99C971.517 429.99 972.253 429.751 972.796 429.326C973.339 428.902 973.644 428.325 973.644 427.724C973.644 427.124 973.339 426.547 972.796 426.123C972.253 425.698 971.517 425.459 970.749 425.459C969.981 425.459 969.245 425.698 968.702 426.123C968.159 426.547 967.854 427.124 967.854 427.724C967.854 428.325 968.159 428.902 968.702 429.326C969.245 429.751 969.981 429.99 970.749 429.99Z" fill="black"/>
<path d="M95.4173 704.491C170.904 705.609 246.333 708.071 321.705 711.877C323.635 711.982 323.635 709.717 321.705 709.611C246.359 705.805 170.93 703.343 95.4173 702.226C95.0334 702.226 94.6653 702.345 94.3938 702.557C94.1223 702.77 93.9698 703.058 93.9698 703.358C93.9698 703.659 94.1223 703.947 94.3938 704.159C94.6653 704.372 95.0334 704.491 95.4173 704.491Z" fill="black"/>
<path d="M517.016 722.765C676.752 722.433 836.225 716.256 995.433 704.234C997.363 704.083 997.363 701.817 995.433 701.968C836.431 713.99 676.958 720.168 517.016 720.5C516.632 720.5 516.264 720.619 515.993 720.832C515.721 721.044 515.569 721.332 515.569 721.633C515.569 721.933 515.721 722.221 515.993 722.434C516.264 722.646 516.632 722.765 517.016 722.765Z" fill="black"/>
<path d="M764.302 733.987C877.32 731.45 990.242 727.19 1103.07 721.21C1105 721.119 1105 718.853 1103.07 718.944C990.267 724.925 877.346 729.184 764.302 731.721C763.918 731.721 763.55 731.841 763.278 732.053C763.007 732.266 762.854 732.554 762.854 732.854C762.854 733.155 763.007 733.443 763.278 733.655C763.55 733.868 763.918 733.987 764.302 733.987Z" fill="black"/>
<path d="M59.5587 759.693C120.468 763.509 181.468 766.278 242.557 768C242.941 768 243.309 767.88 243.581 767.668C243.852 767.455 244.005 767.167 244.005 766.867C244.005 766.567 243.852 766.278 243.581 766.066C243.309 765.854 242.941 765.734 242.557 765.734C181.493 764.012 120.494 761.244 59.5587 757.427C57.6287 757.322 57.6287 759.587 59.5587 759.693Z" fill="black"/>
<path d="M80.3636 603.026C114.929 607.754 149.572 612.481 184.581 614.656C220.165 616.775 255.945 615.543 291.154 610.986C328.382 606.304 365.38 601.259 402.956 598.405C440.069 595.581 477.317 594.267 514.604 594.297C514.988 594.297 515.356 594.177 515.627 593.965C515.899 593.753 516.051 593.464 516.051 593.164C516.051 592.864 515.899 592.575 515.627 592.363C515.356 592.151 514.988 592.031 514.604 592.031C442.829 592.031 372.192 597.967 301.498 607.361C265.041 612.209 229.028 614.686 192.031 612.813C155.034 610.941 117.901 605.866 81.1356 600.836C79.3215 600.595 78.5302 602.77 80.3636 603.026Z" fill="black"/>
<path d="M494.764 665.902C495.148 665.902 495.516 665.782 495.787 665.57C496.059 665.358 496.211 665.069 496.211 664.769C496.211 664.469 496.059 664.18 495.787 663.968C495.516 663.756 495.148 663.636 494.764 663.636C494.38 663.636 494.012 663.756 493.74 663.968C493.469 664.18 493.316 664.469 493.316 664.769C493.316 665.069 493.469 665.358 493.74 665.57C494.012 665.782 494.38 665.902 494.764 665.902Z" fill="black"/>
<path d="M531.433 651.388C567.427 638.188 603.942 625.592 642.058 616.575C677.396 608.223 713.891 603.133 750.503 599.614C821.525 592.772 893.319 591.67 964.091 583.423C1004.39 578.726 1044.16 571.522 1082.18 559.953C1083.9 559.424 1083.15 557.234 1081.41 557.763C943.344 599.81 790.839 581.264 649.682 612.482C608.303 621.634 568.836 635.137 530.024 649.44C528.345 650.059 529.812 652.007 531.491 651.388H531.433Z" fill="black"/>
<path d="M66.8541 479.935C130.813 492.592 195.486 504.614 261.548 507.741C328.595 510.927 395.371 502.485 462.418 503.21C501.649 503.617 540.798 506.14 579.586 510.761C581.4 510.973 582.191 508.783 580.358 508.571C514.372 500.763 448.233 499.509 381.707 503.013C348.531 504.72 315.317 506.819 282.025 506.215C247.373 505.372 212.857 502.418 178.792 497.38C141.389 492.094 104.45 485.04 67.6261 477.745C67.255 477.665 66.8584 477.704 66.5236 477.853C66.1888 478.001 65.9432 478.248 65.8408 478.538C65.7385 478.829 65.7877 479.139 65.9777 479.401C66.1677 479.663 66.483 479.855 66.8541 479.935Z" fill="black"/>
<path d="M635.246 485.116C666.26 490.327 698.123 486.989 729.176 483.606C762.816 479.981 796.204 475.088 829.438 469.726C895.905 459.018 961.929 446.407 1029.05 438.281C1068.26 433.366 1107.86 430.631 1147.55 430.095C1147.94 430.095 1148.3 429.976 1148.58 429.763C1148.85 429.551 1149 429.263 1149 428.962C1149 428.662 1148.85 428.374 1148.58 428.161C1148.3 427.949 1147.94 427.83 1147.55 427.83C1014.1 429.068 886.14 461.676 755.366 478.259C716.67 483.168 674.925 489.436 636.018 482.896C634.203 482.594 633.431 484.784 635.246 485.086V485.116Z" fill="black"/>
<path d="M69.9033 307.441C260.409 357.418 460.565 310.764 653.561 298.258C710.996 294.543 768.779 293.863 826.099 299.195C828.029 299.376 827.932 297.111 826.099 296.929C627.14 278.413 432.388 333.071 233.602 327.242C178.251 325.701 123.267 319.056 70.7139 305.251C68.9576 304.798 68.1856 306.973 69.9419 307.441H69.9033Z" fill="black"/>
<path d="M579.586 164.791C643.062 153.222 706.635 141.622 771.095 133.784C837.615 125.849 904.926 122.719 972.177 124.435C1010.49 125.296 1048.72 127.259 1086.93 129.389C1088.86 129.494 1088.86 127.229 1086.93 127.123C1018.86 123.317 950.543 120.1 882.357 122.592C817.53 124.903 753.34 132.953 689.844 143.208C652.731 149.25 615.811 155.94 578.91 162.676C577.096 163.009 577.868 165.183 579.682 164.851L579.586 164.791Z" fill="black"/>
<path d="M0.984546 114.361C175.414 162.918 361.886 132.591 540.639 120.403C594.89 116.687 649.353 114.694 703.798 116.778C705.727 116.853 705.727 114.588 703.798 114.512C518.116 107.338 334.906 148.993 149.186 136.382C99.007 132.984 49.2914 125.417 1.75653 112.217C0.000268375 111.733 -0.752415 113.923 0.984546 114.407V114.361Z" fill="black"/>
<path d="M721.109 62.98C784.087 59.9784 847.23 59.7162 910.245 62.1946C912.175 62.1946 912.175 60.0047 910.245 59.9291C847.23 57.4507 784.087 57.7129 721.109 60.7145C719.179 60.8051 719.179 63.0706 721.109 62.98Z" fill="black"/>
<path d="M212.72 272.1C216.493 272.1 219.552 269.706 219.552 266.753C219.552 263.8 216.493 261.407 212.72 261.407C208.947 261.407 205.888 263.8 205.888 266.753C205.888 269.706 208.947 272.1 212.72 272.1Z" fill="black"/>
<path d="M895.037 233.994C898.501 233.994 901.309 231.797 901.309 229.086C901.309 226.375 898.501 224.177 895.037 224.177C891.573 224.177 888.765 226.375 888.765 229.086C888.765 231.797 891.573 233.994 895.037 233.994Z" fill="black"/>
<path d="M302.56 404.812C307.836 404.812 312.113 401.464 312.113 397.335C312.113 393.207 307.836 389.859 302.56 389.859C297.283 389.859 293.006 393.207 293.006 397.335C293.006 401.464 297.283 404.812 302.56 404.812Z" fill="black"/>
<path d="M573.68 9.87752C577.165 9.87752 579.991 7.66636 579.991 4.93876C579.991 2.21116 577.165 0 573.68 0C570.194 0 567.369 2.21116 567.369 4.93876C567.369 7.66636 570.194 9.87752 573.68 9.87752Z" fill="black"/>
<path d="M986.903 379.711C989.653 379.711 991.882 377.966 991.882 375.814C991.882 373.662 989.653 371.917 986.903 371.917C984.153 371.917 981.924 373.662 981.924 375.814C981.924 377.966 984.153 379.711 986.903 379.711Z" fill="black"/>
<path d="M148.665 590.07C152.289 590.07 155.227 587.77 155.227 584.934C155.227 582.098 152.289 579.799 148.665 579.799C145.041 579.799 142.103 582.098 142.103 584.934C142.103 587.77 145.041 590.07 148.665 590.07Z" fill="black"/>
<path d="M843.43 281.902C854.508 274.637 859.043 284.333 869.079 283.185C875.332 282.476 879.539 277.794 885.599 276.646C898.009 274.274 907.987 284.922 920.532 280.648C922.23 280.074 920.763 278.111 919.065 278.7C905.748 283.231 893.84 270.151 879.694 276.223C874.078 278.624 869.812 281.388 862.536 279.712C859.777 279.092 857.847 277.325 854.817 276.933C852.401 276.662 849.938 276.824 847.614 277.407C845.29 277.991 843.167 278.98 841.403 280.301C839.975 281.237 842.021 282.823 843.449 281.902H843.43Z" fill="black"/>
<path d="M896.967 290.632C903.413 285.829 912.098 296.311 919.663 295.163C921.863 294.831 923.349 293.547 925.202 292.716C933.617 288.955 940.121 290.949 947.783 294.227C949.423 294.921 950.89 292.958 949.249 292.263C944.811 290.39 939.928 288.321 934.775 288.064C928.367 287.732 927.055 290.602 921.458 292.172C911.808 294.891 903.818 282.416 894.921 289.046C893.57 290.043 895.616 291.644 896.967 290.647V290.632Z" fill="black"/>
<path d="M154.204 82.7061C155.825 75.4263 169.972 82.0567 175.665 81.0598C182.072 79.9422 184.35 75.1847 191.877 75.23C198.38 75.23 200.368 80.063 205.734 80.0932C207.019 79.9333 208.259 79.6012 209.401 79.1115C215.847 77.3747 220.691 76.9971 227.118 79.1115C228.835 79.6704 229.588 77.4804 227.89 76.9367C224.388 75.6571 220.535 75.076 216.676 75.2451C211.736 75.5321 208.107 77.5861 202.781 76.257C196.991 74.7467 194.443 72.013 187.496 73.4478C184.195 74.1275 182.111 75.8945 179.216 77.1179C170.57 80.8031 167.887 76.8309 160.495 76.8611C155.941 76.8611 152.216 78.5527 151.425 82.1171C151.097 83.5368 153.895 84.156 154.204 82.7212V82.7061Z" fill="black"/>
<path d="M192.012 89.3811C195.698 82.6299 205.869 85.9828 212.257 86.889C215.769 87.3724 219.375 87.2383 222.814 86.4963C228.353 85.5146 231.711 84.8501 237.346 86.1641C240.304 87.1015 243.586 87.203 246.629 86.451C248.405 85.9979 247.652 83.808 245.857 84.2762C239.585 85.8771 234.857 81.8143 228.835 82.1919C227.473 82.357 226.144 82.6564 224.879 83.083C217.969 84.5933 215.518 84.986 208.686 83.9137C201.854 82.8414 192.919 82.0107 189.522 88.2332C188.788 89.5623 191.278 90.7101 192.012 89.3811Z" fill="black"/>
<path d="M302.424 652.355C305.416 646.51 317.054 653.367 322.052 653.276C326.182 653.201 329.598 651.207 333.458 650.392C344.691 647.99 356.29 651.781 367.638 649.5C367.821 649.461 367.993 649.393 368.144 649.301C368.294 649.21 368.42 649.096 368.514 648.966C368.608 648.836 368.669 648.693 368.692 648.545C368.716 648.397 368.702 648.247 368.651 648.103C368.6 647.96 368.514 647.825 368.397 647.707C368.28 647.59 368.134 647.491 367.968 647.418C367.802 647.344 367.62 647.297 367.431 647.278C367.241 647.26 367.049 647.271 366.866 647.31C357.872 649.123 349.496 647.129 340.367 647.31C334.365 647.446 329.791 649.878 324.156 650.724C316.668 651.826 304.239 642.704 299.626 651.705C298.931 653.065 301.73 653.654 302.424 652.31V652.355Z" fill="black"/>
<path d="M349.149 662.217C354.939 657.686 366.788 661.96 373.91 662.504C381.071 662.993 388.282 662.77 395.371 661.839C397.205 661.613 396.433 659.438 394.618 659.649C381.997 661.16 371.459 659.362 359.03 658.139C354.302 657.656 350.519 657.912 347.103 660.646C345.81 661.688 347.856 663.304 349.149 662.247V662.217Z" fill="black"/>
<path d="M462.727 103.684C464.174 101.162 472.106 101.101 475.02 101.449C477.154 101.946 479.318 102.36 481.505 102.687C483.766 102.683 486.011 102.382 488.144 101.796C494.532 100.512 498.759 99.5002 505.166 100.618C507.997 101.19 510.952 101.283 513.832 100.89C515.665 100.633 514.893 98.4581 513.079 98.6997C506.672 99.5606 501.094 96.2983 494.822 97.0988C493.683 97.2498 492.66 97.718 491.541 97.9143C485.886 98.9263 481.66 99.9533 475.773 99.2585C469.887 98.5638 463.325 97.1139 460.218 102.551C459.465 103.865 461.974 105.028 462.727 103.684Z" fill="black"/>
<path d="M506.556 106.206C513.488 108.38 521.149 108.683 528.326 107.067C528.697 106.986 529.012 106.794 529.202 106.532C529.392 106.27 529.442 105.96 529.339 105.67C529.237 105.379 528.991 105.132 528.656 104.984C528.322 104.835 527.925 104.796 527.554 104.877C520.88 106.377 513.755 106.074 507.328 104.016C505.61 103.472 504.858 105.662 506.556 106.206Z" fill="black"/>
</svg>
